<svg height="512" viewBox="0 0 58 54" width="512" xmlns="http://www.w3.org/2000/svg"><g id="Page-1" fill="none" fill-rule="evenodd"><g id="001---Book" fill-rule="nonzero"><rect id="Rectangle-path" fill="#a56a43" height="46" rx="4" width="58" y="8"/><path id="Shape" d="m51 2h-8l-10 .35c-2.3903898.85269531-3.9899662 3.11209688-4 5.65.0047127-1.17844222-.3435813-2.33129534-1-3.31-1.1079845-1.68073342-2.9869198-2.69160058-5-2.69h-16c-1.65685425 0-3 1.34314575-3 3v42c0 1.6568542 1.34314575 3 3 3h44c1.6568542 0 3-1.3431458 3-3v-42c0-1.65685425-1.3431458-3-3-3z" fill="#ecf0f1"/><path id="Shape" d="m29 50h-22c-1.65685425 0-3-1.3431458-3-3v-6c0 1.6568542 1.34314575 3 3 3h16c3.3116533.0049563 5.9950437 2.6883467 6 6z" fill="#bdc3c7"/><path id="Shape" d="m54 41v6c0 1.6568542-1.3431458 3-3 3h-22c.0049563-3.3116533 2.6883467-5.9950437 6-6h16c1.6568542 0 3-1.3431458 3-3z" fill="#bdc3c7"/><path id="Shape" d="m43 23-5-4-5 4v-21c0-1.1045695.8954305-2 2-2h6c1.1045695 0 2 .8954305 2 2z" fill="#e64c3c"/><path id="Shape" d="m30 4.7v41.99c-.6564187.9787047-1.0047127 2.1315578-1 3.31.0047127-1.1784422-.3435813-2.3312953-1-3.31v-42c.6564187.97870466 1.0047127 2.13155778 1 3.31-.0000599-1.1746452.3479184-2.32297344 1-3.3z" fill="#d1d4d1"/><g fill="#547580"><path id="Shape" d="m23 9h-14c-.55228475 0-1-.44771525-1-1s.44771525-1 1-1h14c.5522847 0 1 .44771525 1 1s-.4477153 1-1 1z"/><path id="Shape" d="m23 14h-14c-.55228475 0-1-.4477153-1-1s.44771525-1 1-1h14c.5522847 0 1 .4477153 1 1s-.4477153 1-1 1z"/><path id="Shape" d="m23 19h-14c-.55228475 0-1-.4477153-1-1s.44771525-1 1-1h14c.5522847 0 1 .4477153 1 1s-.4477153 1-1 1z"/><path id="Shape" d="m13 24h-4c-.55228475 0-1-.4477153-1-1s.44771525-1 1-1h4c.5522847 0 1 .4477153 1 1s-.4477153 1-1 1z"/><path id="Shape" d="m23 24h-6c-.5522847 0-1-.4477153-1-1s.4477153-1 1-1h6c.5522847 0 1 .4477153 1 1s-.4477153 1-1 1z"/><path id="Shape" d="m23 29h-14c-.55228475 0-1-.4477153-1-1s.44771525-1 1-1h14c.5522847 0 1 .4477153 1 1s-.4477153 1-1 1z"/><path id="Shape" d="m23 34h-14c-.55228475 0-1-.4477153-1-1s.44771525-1 1-1h14c.5522847 0 1 .4477153 1 1s-.4477153 1-1 1z"/><path id="Shape" d="m14 39h-5c-.55228475 0-1-.4477153-1-1s.44771525-1 1-1h5c.5522847 0 1 .4477153 1 1s-.4477153 1-1 1z"/><path id="Shape" d="m23 39h-5c-.5522847 0-1-.4477153-1-1s.4477153-1 1-1h5c.5522847 0 1 .4477153 1 1s-.4477153 1-1 1z"/><path id="Shape" d="m49 9h-2c-.5522847 0-1-.44771525-1-1s.4477153-1 1-1h2c.5522847 0 1 .44771525 1 1s-.4477153 1-1 1z"/><path id="Shape" d="m49 14h-2c-.5522847 0-1-.4477153-1-1s.4477153-1 1-1h2c.5522847 0 1 .4477153 1 1s-.4477153 1-1 1z"/><path id="Shape" d="m49 19h-2c-.5522847 0-1-.4477153-1-1s.4477153-1 1-1h2c.5522847 0 1 .4477153 1 1s-.4477153 1-1 1z"/><path id="Shape" d="m49 24h-2c-.5522847 0-1-.4477153-1-1s.4477153-1 1-1h2c.5522847 0 1 .4477153 1 1s-.4477153 1-1 1z"/><path id="Shape" d="m49 29h-14c-.5522847 0-1-.4477153-1-1s.4477153-1 1-1h14c.5522847 0 1 .4477153 1 1s-.4477153 1-1 1z"/><path id="Shape" d="m49 34h-14c-.5522847 0-1-.4477153-1-1s.4477153-1 1-1h14c.5522847 0 1 .4477153 1 1s-.4477153 1-1 1z"/><path id="Shape" d="m40 39h-5c-.5522847 0-1-.4477153-1-1s.4477153-1 1-1h5c.5522847 0 1 .4477153 1 1s-.4477153 1-1 1z"/><path id="Shape" d="m49 39h-5c-.5522847 0-1-.4477153-1-1s.4477153-1 1-1h5c.5522847 0 1 .4477153 1 1s-.4477153 1-1 1z"/></g></g></g></svg>