<svg id="Capa_1" enable-background="new 0 0 512 512" height="512" viewBox="0 0 512 512" width="512" xmlns="http://www.w3.org/2000/svg"><g><path d="m361 452-33-120-55 90-17 90z" fill="#474f54"/><path d="m184 332-40 120 112 60-22-105z" fill="#575f64"/><path d="m328 332-72 180-72-180h27v-17c0-8.28 6.72-15 15-15h60c8.28 0 15 6.72 15 15v17z" fill="#fff5f5"/><path d="m328 332-72 180v-212h30c8.28 0 15 6.72 15 15v17z" fill="#efe2dd"/><path d="m256 0h-120c-11.15 0-18.39 11.75-13.42 21.71l19.15 38.29h-5.73c-8.28 0-15 6.72-15 15v90c0 8.28 6.72 15 15 15 36.22 0 66.52-25.81 73.49-60h93.02c6.97 34.19 37.27 60 73.49 60 8.28 0 15-6.72 15-15v-30c0-74.44-60.56-135-135-135z" fill="#fed843"/><path d="m391 135v30c0 8.28-6.72 15-15 15-36.22 0-66.52-25.81-73.49-60h-46.51v-120c74.44 0 135 60.56 135 135z" fill="#ffb64c"/><path d="m166 237h-30c-24.813 0-45-20.187-45-45s20.187-45 45-45h30c8.284 0 15 6.716 15 15v60c0 8.284-6.716 15-15 15z" fill="#ffbfab"/><path d="m376 237h-30c-8.284 0-15-6.716-15-15v-60c0-8.284 6.716-15 15-15h30c24.813 0 45 20.187 45 45s-20.187 45-45 45z" fill="#f89580"/><path d="m361 147.45v77.55c0 57.9-47.1 105-105 105s-105-47.1-105-105v-77.54c17.84-6.29 30-23.23 30-42.46 0-8.28 6.72-15 15-15h120c8.28 0 15 6.72 15 15 0 19.22 12.16 36.16 30 42.45z" fill="#ffe1ba"/><path d="m361 147.45v77.55c0 57.9-47.1 105-105 105v-240h60c8.28 0 15 6.72 15 15 0 19.22 12.16 36.16 30 42.45z" fill="#ffbfab"/><path d="m301 225c0 24.81-20.19 45-45 45s-45-20.19-45-45c0-8.28 6.72-15 15-15s15 6.72 15 15c0 8.27 6.73 15 15 15s15-6.73 15-15c0-8.28 6.72-15 15-15s15 6.72 15 15z" fill="#ffbfab"/><path d="m301 225c0 24.81-20.19 45-45 45v-30c8.27 0 15-6.73 15-15 0-8.28 6.72-15 15-15s15 6.72 15 15z" fill="#f89580"/><path d="" fill="#474f54"/><path d="m451 407c0-41.355-33.645-75-75-75h-48l16.587 110.579c.863 5.75-1.676 11.481-6.514 14.706l-82.073 54.715h180c8.284 0 15-6.716 15-15z" fill="#32393f"/><g fill="#474f54"><path d=""/><path d="m184 332h-48c-41.355 0-75 33.645-75 75v90c0 8.284 6.716 15 15 15h180l-82.073-54.716c-4.838-3.225-7.376-8.956-6.514-14.706z"/><path d=""/><path d=""/></g></g></svg>