<?xml version="1.0" standalone="no"?><svg xmlns="http://www.w3.org/2000/svg" viewBox="0 0 1440 320"><path fill="#f0a500" fill-opacity="1" d="M0,320L30,272C60,224,120,128,180,128C240,128,300,224,360,256C420,288,480,256,540,218.7C600,181,660,139,720,112C780,85,840,75,900,58.7C960,43,1020,21,1080,64C1140,107,1200,213,1260,250.7C1320,288,1380,256,1410,240L1440,224L1440,320L1410,320C1380,320,1320,320,1260,320C1200,320,1140,320,1080,320C1020,320,960,320,900,320C840,320,780,320,720,320C660,320,600,320,540,320C480,320,420,320,360,320C300,320,240,320,180,320C120,320,60,320,30,320L0,320Z"></path></svg>